<svg data-name="Group 103" xmlns="http://www.w3.org/2000/svg" width="18" height="13.698" viewBox="0 0 18 13.698"><path data-name="Path 74" d="M15.8 0H2.2A2.2 2.2 0 0 0 0 2.2v9.3a2.2 2.2 0 0 0 2.2 2.2h13.6a2.2 2.2 0 0 0 2.2-2.2V2.205A2.2 2.2 0 0 0 15.8 0zM17 11.5a1.2 1.2 0 0 1-1.2 1.2H2.2A1.2 1.2 0 0 1 1 11.5V2.205a1.2 1.2 0 0 1 1.2-1.2h13.6a1.2 1.2 0 0 1 1.2 1.2v9.292z" fill="#747e88"/><path data-name="Path 75" d="M11.352 6.734l4.4-3.948a.504.504 0 0 0-.674-.749L9.007 7.486 7.824 6.429s-.007-.007-.007-.011a.745.745 0 0 0-.082-.071L2.916 2.034a.504.504 0 0 0-.67.752L6.7 6.767 2.264 10.92a.5.5 0 0 0-.022.711.514.514 0 0 0 .369.16.5.5 0 0 0 .343-.134l4.5-4.212 1.222 1.091a.5.5 0 0 0 .67 0l1.255-1.125 4.477 4.253a.5.5 0 0 0 .711-.019.5.5 0 0 0-.019-.711z" fill="#747e88"/></svg>